<svg width="22" height="22" viewBox="0 0 22 22" fill="none" xmlns="http://www.w3.org/2000/svg">
<path fill-rule="evenodd" clip-rule="evenodd" d="M12.7927 12.2638C11.3608 13.6957 9.03915 13.6957 7.60723 12.2638C6.1753 10.8318 6.1753 8.51024 7.60723 7.07832C9.03915 5.6464 11.3608 5.6464 12.7927 7.07832C14.2246 8.51024 14.2246 10.8318 12.7927 12.2638ZM13.2331 13.6467C11.2728 15.1461 8.45724 14.9994 6.66442 13.2066C4.7118 11.254 4.7118 8.08813 6.66442 6.13551C8.61704 4.18289 11.7829 4.18289 13.7355 6.13551C15.5282 7.92826 15.675 10.7437 14.1758 12.7039L17.7425 16.2706L16.7997 17.2134L13.2331 13.6467Z" fill="white"/>
</svg>
